# xmcd
#
# Track frame offsets: 
#        182
#        13637
#        27362
#        42460
#        55252
#        73132
#        85397
#        106062
#        122075
#        135972
#        147850
#        161505
#        179417
#        192415
#
# Disc length: 2767 seconds
#
# Revision: 0
# Processed by: cddbd v1.5.2PL0 Copyright (c) Steve Scherf et al.
# Submitted via: ExactAudioCopy v0.95a5
#
DISCID=c10acd0e
DTITLE=Percy Sledge - When A Man Loves A Woman
DYEAR=1990
DGENRE=Soul
TTITLE0=When a man loves a woman
TTITLE1=Take time to know her
TTITLE2=Warm and tender love
TTITLE3=Behind closed doors
TTITLE4=Try a little tenderness
TTITLE5=Tell it like it is
TTITLE6=You send me
TTITLE7=Bring it on home to me
TTITLE8=My special prayer
TTITLE9=Sitting on the dock of the bay
TTITLE10=I've been loving you to long
TTITLE11=If lovong you is wrong (i don't want to be right)
TTITLE12=Cover me
TTITLE13=Walking in the sun
EXTD=
EXTT0=
EXTT1=
EXTT2=
EXTT3=
EXTT4=
EXTT5=
EXTT6=
EXTT7=
EXTT8=
EXTT9=
EXTT10=
EXTT11=
EXTT12=
EXTT13=
PLAYORDER=
